<?xml version="1.0" encoding="UTF-8" standalone="no"?>
<!-- Created with Inkscape (http://www.inkscape.org/) -->
<svg
   xmlns:dc="http://purl.org/dc/elements/1.1/"
   xmlns:cc="http://web.resource.org/cc/"
   xmlns:rdf="http://www.w3.org/1999/02/22-rdf-syntax-ns#"
   xmlns:svg="http://www.w3.org/2000/svg"
   xmlns="http://www.w3.org/2000/svg"
   xmlns:xlink="http://www.w3.org/1999/xlink"
   xmlns:sodipodi="http://inkscape.sourceforge.net/DTD/sodipodi-0.dtd"
   xmlns:inkscape="http://www.inkscape.org/namespaces/inkscape"
   height="48"
   width="48"
   id="svg2"
   sodipodi:version="0.32"
   inkscape:version="0.43"
   version="1.0"
   sodipodi:docbase="/home/users/wolf/programy/eithne/gfx"
   sodipodi:docname="icon.svg"
   inkscape:export-filename="/home/users/wolf/programy/eithne/gfx/icon-48.png"
   inkscape:export-xdpi="90"
   inkscape:export-ydpi="90">
  <defs
     id="defs4">
    <linearGradient
       id="linearGradient4162">
      <stop
         style="stop-color:#e9b96e;stop-opacity:1;"
         offset="0"
         id="stop4164" />
      <stop
         style="stop-color:#f3d6aa;stop-opacity:1;"
         offset="1"
         id="stop4166" />
    </linearGradient>
    <linearGradient
       id="linearGradient4154">
      <stop
         style="stop-color:#cee14b;stop-opacity:1;"
         offset="0"
         id="stop4156" />
      <stop
         style="stop-color:#dcea7e;stop-opacity:1;"
         offset="1"
         id="stop4158" />
    </linearGradient>
    <linearGradient
       id="linearGradient4146">
      <stop
         style="stop-color:#729fcf;stop-opacity:1;"
         offset="0"
         id="stop4148" />
      <stop
         style="stop-color:#a1c0df;stop-opacity:1;"
         offset="1"
         id="stop4150" />
    </linearGradient>
    <linearGradient
       id="linearGradient4106">
      <stop
         style="stop-color:#000000;stop-opacity:1;"
         offset="0"
         id="stop4108" />
      <stop
         style="stop-color:#000000;stop-opacity:0;"
         offset="1"
         id="stop4110" />
    </linearGradient>
    <radialGradient
       inkscape:collect="always"
       xlink:href="#linearGradient4106"
       id="radialGradient4112"
       cx="24.240601"
       cy="42.526318"
       fx="24.240601"
       fy="42.526318"
       r="17.263159"
       gradientTransform="matrix(1,0,0,0.135889,-4.024558e-16,36.74748)"
       gradientUnits="userSpaceOnUse" />
    <linearGradient
       inkscape:collect="always"
       xlink:href="#linearGradient4146"
       id="linearGradient4152"
       x1="14.074064"
       y1="19.171158"
       x2="10.792972"
       y2="9.3064966"
       gradientUnits="userSpaceOnUse" />
    <linearGradient
       inkscape:collect="always"
       xlink:href="#linearGradient4154"
       id="linearGradient4160"
       x1="14.074064"
       y1="44.206303"
       x2="10.593526"
       y2="34.28149"
       gradientUnits="userSpaceOnUse" />
    <linearGradient
       inkscape:collect="always"
       xlink:href="#linearGradient4162"
       id="linearGradient4168"
       x1="39.106064"
       y1="29.014303"
       x2="33.489723"
       y2="11.828279"
       gradientUnits="userSpaceOnUse" />
  </defs>
  <sodipodi:namedview
     id="base"
     pagecolor="#ffffff"
     bordercolor="#666666"
     borderopacity="1.0"
     inkscape:pageopacity="0.0"
     inkscape:pageshadow="2"
     inkscape:cx="24.301124"
     inkscape:cy="23.284815"
     inkscape:zoom="16.625"
     inkscape:document-units="px"
     inkscape:current-layer="layer1"
     showgrid="true"
     inkscape:grid-points="false"
     fill="#729fcf"
     inkscape:grid-bbox="false"
     inkscape:window-width="1280"
     inkscape:window-height="969"
     inkscape:window-x="0"
     inkscape:window-y="0"
     showguides="true"
     inkscape:guide-bbox="true" />
  <metadata
     id="metadata7">
    <rdf:RDF>
      <cc:Work
         rdf:about="">
        <dc:format>image/svg+xml</dc:format>
        <dc:type
           rdf:resource="http://purl.org/dc/dcmitype/StillImage" />
      </cc:Work>
    </rdf:RDF>
  </metadata>
  <g
     inkscape:groupmode="layer"
     inkscape:label="Warstwa 1"
     id="layer1">
    <g
       id="g4078"
       transform="translate(2.381143e-2,0.458858)">
      <g
         transform="matrix(0.904762,0,0,1,0.309524,-9.494002)"
         id="g3975">
        <path
           style="opacity:1;fill:url(#linearGradient4160);fill-opacity:1.0;fill-rule:evenodd;stroke:#000000;stroke-width:1.05131543;stroke-linecap:butt;stroke-linejoin:miter;stroke-miterlimit:4;stroke-dasharray:none;stroke-dashoffset:0;stroke-opacity:1"
           d="M 5.09375,33.497264 C 3.6315564,33.670322 2.5,34.86949 2.5,36.306102 L 2.5,36.707365 C 4.4107689,36.707365 5.96875,37.957685 5.96875,39.491125 C 5.9687501,41.024567 4.410769,42.274885 2.5,42.274885 L 2.5,42.726305 C 2.5,44.2825 3.829565,45.535144 5.46875,45.535144 L 19.53125,45.535144 C 21.170435,45.535144 22.5,44.282501 22.5,42.726305 L 22.5,42.325043 C 20.609812,42.305807 19.09375,41.062743 19.09375,39.541283 C 19.093751,38.01982 20.609812,36.776758 22.5,36.757523 L 22.5,36.306102 C 22.5,34.749908 21.170434,33.497264 19.53125,33.497264 L 5.46875,33.497264 C 5.3791071,33.497264 5.275068,33.489925 5.1875,33.497264 C 5.1520232,33.500237 5.1288426,33.49311 5.09375,33.497264 z "
           id="rect1752" />
        <path
           style="opacity:0.5;fill:#ffffff;fill-opacity:1;fill-rule:evenodd;stroke:none;stroke-width:1.05131459;stroke-linecap:butt;stroke-linejoin:miter;stroke-miterlimit:4;stroke-dashoffset:0;stroke-opacity:1"
           d="M 4.9011259,33.991967 C 4.38216,34.073752 3.9414816,34.416745 3.6231656,34.835717 C 3.2542288,35.321316 3.0014552,35.954703 3.0014552,36.648217 L 3.0014552,42.460717 C 3.0014552,43.154232 3.2542288,43.787618 3.6231656,44.273217 C 3.9690436,44.728466 4.4595306,45.075842 5.0392838,45.116967 C 5.0465685,45.117355 5.0650545,45.116894 5.0738233,45.116967 C 5.0923874,45.116773 5.1281098,45.116967 5.1429022,45.116967 L 19.753098,45.116967 C 19.790079,45.116967 19.847433,45.117566 19.891256,45.116967 C 19.898036,45.116676 19.919744,45.1175 19.925795,45.116967 C 20.485097,45.057947 21.007565,44.713291 21.341914,44.273217 C 21.71085,43.787618 21.929085,43.154232 21.929085,42.460717 L 21.929085,36.648217 C 21.929083,35.954703 21.71085,35.321316 21.341914,34.835717 C 21.007564,34.395642 20.485097,34.050987 19.925795,33.991967 C 19.919744,33.991434 19.898036,33.992258 19.891256,33.991967 C 19.847433,33.991367 19.790079,33.991967 19.753098,33.991967 L 5.1429022,33.991967 C 5.1281097,33.991967 5.0923874,33.99216 5.0738233,33.991967 C 5.0650545,33.992039 5.0465686,33.991579 5.0392838,33.991967 C 5.0270119,33.992118 4.9842415,33.992491 4.9702049,33.991967 C 4.9658116,33.991969 4.9397127,33.991777 4.9356654,33.991967 C 4.9187288,33.99407 4.9178668,33.989328 4.9011259,33.991967 z M 4.9702049,35.054467 C 4.9768634,35.051003 4.9987536,35.057221 5.0047443,35.054467 C 5.0166805,35.054465 5.061856,35.054214 5.0738233,35.054467 C 5.0917141,35.054327 5.1307235,35.054467 5.1429022,35.054467 L 19.753098,35.054467 C 19.765277,35.054467 19.804286,35.054327 19.822177,35.054467 C 19.858336,35.057838 19.916454,35.076048 19.960335,35.085717 C 19.967046,35.087397 19.988999,35.083998 19.994874,35.085717 C 20.006877,35.091091 20.05199,35.111327 20.063953,35.116967 C 20.079301,35.123669 20.117859,35.140435 20.133032,35.148217 C 20.145072,35.153384 20.190119,35.174025 20.202111,35.179467 C 20.208133,35.184971 20.230641,35.205143 20.236651,35.210717 C 20.248724,35.221565 20.293709,35.262085 20.305729,35.273217 C 20.31286,35.279616 20.332996,35.297615 20.340269,35.304467 C 20.384414,35.348016 20.438595,35.40829 20.478427,35.460717 C 20.504981,35.495668 20.522595,35.546298 20.547506,35.585717 C 20.554487,35.583153 20.575043,35.619519 20.582045,35.616967 C 19.580745,35.981994 18.808549,36.427582 18.267901,37.054467 C 17.662979,37.755876 17.40877,38.637002 17.404414,39.616967 C 17.399751,40.665702 17.784428,41.582542 18.440598,42.273217 C 18.994242,42.855974 19.702435,43.282778 20.512966,43.585717 C 20.50007,43.604333 20.491704,43.630741 20.478427,43.648217 C 20.438594,43.700644 20.384414,43.760917 20.340269,43.804467 C 20.332996,43.811319 20.31286,43.829318 20.305729,43.835717 C 20.293709,43.846848 20.248724,43.887369 20.236651,43.898217 C 20.230641,43.903791 20.208133,43.923963 20.202111,43.929467 C 20.190119,43.934909 20.145072,43.95555 20.133032,43.960717 C 20.117858,43.968499 20.079302,43.985264 20.063953,43.991967 C 20.05199,43.997607 20.006877,44.017843 19.994874,44.023217 C 19.988999,44.024935 19.967046,44.021537 19.960335,44.023217 C 19.916454,44.032885 19.858337,44.051095 19.822177,44.054467 C 19.804286,44.054607 19.765277,44.054467 19.753098,44.054467 L 5.1429022,44.054467 C 5.1307234,44.054467 5.0917141,44.054607 5.0738233,44.054467 C 5.0618559,44.054719 5.0166805,44.054468 5.0047443,44.054467 C 4.9927627,44.048958 4.9476121,44.028984 4.9356654,44.023217 C 4.8729945,44.004888 4.7883818,43.964964 4.7284286,43.929467 C 4.7163757,43.92437 4.6713524,43.903592 4.6593497,43.898217 C 4.6305842,43.874406 4.5804879,43.827867 4.5557312,43.804467 C 4.513641,43.762622 4.457405,43.700644 4.4175734,43.648217 C 4.4118261,43.637769 4.3886197,43.59645 4.3830339,43.585717 C 5.200517,43.282778 5.9362975,42.855973 6.4899415,42.273217 C 7.1461115,41.582543 7.5653275,40.665702 7.5606655,39.616967 C 7.5563075,38.637002 7.2330205,37.755875 6.6280995,37.054467 C 6.0874515,36.427583 5.3152543,35.981994 4.313955,35.616967 C 4.3200412,35.611698 4.3423651,35.590919 4.3484944,35.585717 C 4.359894,35.564816 4.3718054,35.513431 4.3830339,35.491967 C 4.38596,35.486828 4.4144766,35.465523 4.4175734,35.460717 C 4.4574048,35.40829 4.5136411,35.346311 4.5557312,35.304467 C 4.5804878,35.281066 4.6305842,35.234528 4.6593497,35.210717 C 4.6713524,35.205342 4.7163757,35.184563 4.7284286,35.179467 C 4.7883817,35.14397 4.8729946,35.104046 4.9356654,35.085717 C 4.9416388,35.082833 4.9635463,35.05793 4.9702049,35.054467 z M 4.0721787,36.616967 C 4.8997723,36.932689 5.4968542,37.311354 5.8682315,37.741967 C 6.3019555,38.244873 6.4864165,38.824113 6.4899415,39.616967 C 6.4934395,40.403744 6.1900535,41.033944 5.6955335,41.554467 C 5.2937365,41.977392 4.7343898,42.328981 4.0721787,42.585717 C 4.0699117,42.541763 4.0721787,42.505639 4.0721787,42.460717 L 4.0721787,36.648217 C 4.0721786,36.633242 4.0719237,36.631839 4.0721787,36.616967 z M 20.789282,36.616967 C 20.807093,36.610011 20.840299,36.623859 20.858361,36.616967 C 20.858685,36.631839 20.858361,36.633242 20.858361,36.648217 L 20.858361,42.460717 C 20.858361,42.505639 20.861205,42.541763 20.858361,42.585717 C 20.182612,42.32032 19.608446,41.952648 19.200466,41.523217 C 18.705948,41.002694 18.4371,40.403744 18.440598,39.616967 C 18.444124,38.824113 18.628584,38.244873 19.062309,37.741967 C 19.428263,37.31764 19.98778,36.92997 20.789282,36.616967 z "
           id="path4266" />
        <path
           style="opacity:1;fill:#ffffff;fill-opacity:1;fill-rule:evenodd;stroke:#000000;stroke-width:1.05131543;stroke-linecap:butt;stroke-linejoin:miter;stroke-miterlimit:4;stroke-dasharray:none;stroke-dashoffset:0;stroke-opacity:1"
           d="M 22.0625,36.782534 C 20.33862,36.940849 19,38.115595 19,39.541215 C 19,41.074656 20.557983,42.324975 22.46875,42.324975 C 22.483678,42.324975 22.485117,42.325126 22.5,42.324975 L 22.5,36.782534 C 22.485117,36.782383 22.483678,36.782534 22.46875,36.782534 C 22.334399,36.782534 22.192877,36.770561 22.0625,36.782534 z "
           id="rect2647" />
        <path
           style="opacity:1;fill:#ffffff;fill-opacity:1;fill-rule:evenodd;stroke:#000000;stroke-width:1.05131543;stroke-linecap:butt;stroke-linejoin:miter;stroke-miterlimit:4;stroke-dasharray:none;stroke-dashoffset:0;stroke-opacity:1"
           d="M 2.5,36.757523 L 2.5,42.325043 C 4.410769,42.325043 5.968749,41.074723 5.96875,39.541283 C 5.96875,38.007842 4.410769,36.757523 2.5,36.757523 z "
           id="rect2652" />
      </g>
      <g
         transform="matrix(0.904762,0,0,1,0.214284,-2.458858)"
         id="g4015">
        <path
           style="fill:url(#linearGradient4152);fill-opacity:1.0;fill-rule:evenodd;stroke:#000000;stroke-width:1.05131543;stroke-linecap:butt;stroke-linejoin:miter;stroke-miterlimit:4;stroke-dasharray:none;stroke-dashoffset:0;stroke-opacity:1"
           d="M 5.0937498,8.4621198 C 3.6315562,8.6351778 2.4999998,9.8343458 2.4999998,11.270958 L 2.4999998,11.672221 C 4.4107687,11.672221 5.9687498,12.922541 5.9687498,14.455981 C 5.9687499,15.989423 4.4107688,17.239741 2.4999998,17.239741 L 2.4999998,17.691161 C 2.4999998,19.247356 3.8295648,20.5 5.4687498,20.5 L 19.53125,20.5 C 21.170435,20.5 22.5,19.247357 22.5,17.691161 L 22.5,17.289899 C 20.609812,17.270663 19.09375,16.027599 19.09375,14.506139 C 19.093751,12.984676 20.609812,11.741614 22.5,11.722379 L 22.5,11.270958 C 22.5,9.7147638 21.170434,8.4621198 19.53125,8.4621198 L 5.4687498,8.4621198 C 5.3791069,8.4621198 5.2750678,8.4547808 5.1874998,8.4621198 C 5.152023,8.4650928 5.1288424,8.4579658 5.0937498,8.4621198 z "
           id="path3987" />
        <path
           style="fill:#ffffff;fill-opacity:1;fill-rule:evenodd;stroke:none;stroke-width:1.05131459;stroke-linecap:butt;stroke-linejoin:miter;stroke-miterlimit:4;stroke-dashoffset:0;stroke-opacity:1;opacity:0.35"
           d="M 4.6875 6.90625 C 4.2179593 6.9880356 3.8192502 7.3310283 3.53125 7.75 C 3.19745 8.235599 2.96875 8.868986 2.96875 9.5625 L 2.96875 15.375 C 2.96875 16.068515 3.19745 16.701901 3.53125 17.1875 C 3.8441873 17.642749 4.2879613 17.990125 4.8125 18.03125 C 4.8190909 18.031638 4.8358163 18.031177 4.84375 18.03125 C 4.8605461 18.031056 4.8928664 18.03125 4.90625 18.03125 L 18.125 18.03125 C 18.158459 18.03125 18.210351 18.031849 18.25 18.03125 C 18.256134 18.030959 18.275775 18.031783 18.28125 18.03125 C 18.787285 17.97223 19.259994 17.627574 19.5625 17.1875 C 19.8963 16.701901 20.09375 16.068515 20.09375 15.375 L 20.09375 9.5625 C 20.093749 8.868986 19.8963 8.235599 19.5625 7.75 C 19.259993 7.3099256 18.787285 6.9652701 18.28125 6.90625 C 18.275775 6.9057173 18.256134 6.9065413 18.25 6.90625 C 18.210351 6.9056507 18.158459 6.90625 18.125 6.90625 L 4.90625 6.90625 C 4.8928663 6.90625 4.8605461 6.9064438 4.84375 6.90625 C 4.8358163 6.9063227 4.819091 6.9058625 4.8125 6.90625 C 4.8013968 6.9064018 4.7626998 6.9067749 4.75 6.90625 C 4.7460251 6.9062527 4.7224118 6.90606 4.71875 6.90625 C 4.7034264 6.9083537 4.7026465 6.9036118 4.6875 6.90625 z M 4.75 7.96875 C 4.7560244 7.9652867 4.7758298 7.9715043 4.78125 7.96875 C 4.7920494 7.9687485 4.8329225 7.9684977 4.84375 7.96875 C 4.8599369 7.96861 4.8952312 7.96875 4.90625 7.96875 L 18.125 7.96875 C 18.136019 7.96875 18.171313 7.96861 18.1875 7.96875 C 18.220215 7.9721217 18.272798 7.9903314 18.3125 8 C 18.318572 8.0016801 18.338434 7.9982816 18.34375 8 C 18.35461 8.0053745 18.395426 8.0256105 18.40625 8.03125 C 18.420136 8.0379525 18.455022 8.0547181 18.46875 8.0625 C 18.479643 8.0676673 18.5204 8.088308 18.53125 8.09375 C 18.536698 8.099254 18.557063 8.1194263 18.5625 8.125 C 18.573424 8.1358485 18.614124 8.1763688 18.625 8.1875 C 18.631451 8.1938991 18.64967 8.2118984 18.65625 8.21875 C 18.696191 8.2622999 18.745212 8.3225731 18.78125 8.375 C 18.805275 8.4099513 18.821212 8.4605818 18.84375 8.5 C 18.850066 8.4974365 18.868665 8.5338026 18.875 8.53125 C 17.969062 8.8962776 17.270408 9.3418657 16.78125 9.96875 C 16.23394 10.670159 16.003941 11.551285 16 12.53125 C 15.995781 13.579985 16.343822 14.496825 16.9375 15.1875 C 17.438416 15.770257 18.079162 16.197061 18.8125 16.5 C 18.800832 16.518616 18.793263 16.545024 18.78125 16.5625 C 18.745211 16.614927 18.696191 16.6752 18.65625 16.71875 C 18.64967 16.725602 18.631451 16.743601 18.625 16.75 C 18.614124 16.761131 18.573424 16.801652 18.5625 16.8125 C 18.557063 16.818074 18.536698 16.838246 18.53125 16.84375 C 18.5204 16.849192 18.479643 16.869833 18.46875 16.875 C 18.455021 16.882782 18.420137 16.899547 18.40625 16.90625 C 18.395426 16.91189 18.35461 16.932126 18.34375 16.9375 C 18.338434 16.939218 18.318572 16.93582 18.3125 16.9375 C 18.272798 16.947168 18.220216 16.965378 18.1875 16.96875 C 18.171313 16.96889 18.136019 16.96875 18.125 16.96875 L 4.90625 16.96875 C 4.8952311 16.96875 4.8599369 16.96889 4.84375 16.96875 C 4.8329224 16.969002 4.7920494 16.968751 4.78125 16.96875 C 4.7704095 16.963241 4.7295589 16.943267 4.71875 16.9375 C 4.6620477 16.919171 4.5854934 16.879247 4.53125 16.84375 C 4.520345 16.838653 4.4796096 16.817875 4.46875 16.8125 C 4.4427241 16.788689 4.3973989 16.74215 4.375 16.71875 C 4.3369183 16.676905 4.2860381 16.614927 4.25 16.5625 C 4.2448001 16.552052 4.2238038 16.510733 4.21875 16.5 C 4.9583777 16.197061 5.6240842 15.770256 6.125 15.1875 C 6.7186777 14.496826 7.0979688 13.579985 7.09375 12.53125 C 7.0898077 11.551285 6.7973095 10.670158 6.25 9.96875 C 5.760842 9.3418666 5.0621876 8.8962778 4.15625 8.53125 C 4.1617566 8.5259818 4.1819544 8.5052022 4.1875 8.5 C 4.1978139 8.4790995 4.2085909 8.4277145 4.21875 8.40625 C 4.2213974 8.4011112 4.2471982 8.3798064 4.25 8.375 C 4.286038 8.3225731 4.3369184 8.2605947 4.375 8.21875 C 4.3973988 8.1953497 4.4427241 8.1488115 4.46875 8.125 C 4.4796096 8.1196255 4.520345 8.0988466 4.53125 8.09375 C 4.5854933 8.0582535 4.6620478 8.0183294 4.71875 8 C 4.7241545 7.9971164 4.7439756 7.9722133 4.75 7.96875 z M 3.9375 9.53125 C 4.6862753 9.8469721 5.2264923 10.225637 5.5625 10.65625 C 5.9549175 11.159156 6.1218105 11.738396 6.125 12.53125 C 6.1281646 13.318027 5.8536724 13.948227 5.40625 14.46875 C 5.0427191 14.891675 4.5366435 15.243264 3.9375 15.5 C 3.9354489 15.456046 3.9375 15.419922 3.9375 15.375 L 3.9375 9.5625 C 3.9374999 9.5475259 3.9372693 9.5461225 3.9375 9.53125 z M 19.0625 9.53125 C 19.078615 9.5242944 19.108658 9.5381426 19.125 9.53125 C 19.125293 9.5461225 19.125 9.5475259 19.125 9.5625 L 19.125 15.375 C 19.125 15.419922 19.127573 15.456046 19.125 15.5 C 18.513608 15.234603 17.994124 14.866931 17.625 14.4375 C 17.177578 13.916977 16.934335 13.318027 16.9375 12.53125 C 16.94069 11.738396 17.107582 11.159156 17.5 10.65625 C 17.831102 10.231923 18.337331 9.8442534 19.0625 9.53125 z "
           transform="matrix(1.105263,0,0,1,-0.263158,2)"
           id="rect4244" />
        <path
           style="fill:#ffffff;fill-opacity:1;fill-rule:evenodd;stroke:#000000;stroke-width:1.05131543;stroke-linecap:butt;stroke-linejoin:miter;stroke-miterlimit:4;stroke-dasharray:none;stroke-dashoffset:0;stroke-opacity:1"
           d="M 22.0625,11.74739 C 20.33862,11.905705 19,13.080451 19,14.506071 C 19,16.039512 20.557983,17.289831 22.46875,17.289831 C 22.483678,17.289831 22.485117,17.289982 22.5,17.289831 L 22.5,11.74739 C 22.485117,11.747239 22.483678,11.74739 22.46875,11.74739 C 22.334399,11.74739 22.192877,11.735417 22.0625,11.74739 z "
           id="path3989" />
        <path
           style="fill:#ffffff;fill-opacity:1;fill-rule:evenodd;stroke:#000000;stroke-width:1.05131543;stroke-linecap:butt;stroke-linejoin:miter;stroke-miterlimit:4;stroke-dasharray:none;stroke-dashoffset:0;stroke-opacity:1"
           d="M 2.4999998,11.722379 L 2.4999998,17.289899 C 4.4107688,17.289899 5.9687488,16.039579 5.9687498,14.506139 C 5.9687498,12.972698 4.4107688,11.722379 2.4999998,11.722379 z "
           id="path3991" />
      </g>
      <g
         transform="matrix(1,0,0,1.018488,-0.114583,-1.142978)"
         id="g4063">
        <path
           style="fill:url(#linearGradient4168);fill-opacity:1.0;fill-rule:evenodd;stroke:#000000;stroke-width:0.99088269;stroke-linecap:butt;stroke-linejoin:miter;stroke-miterlimit:4;stroke-dasharray:none;stroke-dashoffset:0;stroke-opacity:1"
           d="M 29.918153,10.96212 C 28.595216,11.135178 27.571427,12.334346 27.571427,13.770958 L 27.571427,14.172221 C 29.300218,14.172221 30.70982,15.422541 30.70982,16.955981 C 30.70982,18.489423 29.300218,19.739741 27.571427,19.739741 L 27.590772,29.732514 C 27.590772,31.288709 28.793712,32.541353 30.276784,32.541353 L 43,32.541353 C 44.483072,32.541353 45.686012,31.28871 45.686012,29.732514 L 45.666667,19.789899 C 43.956497,19.770663 42.584821,18.527599 42.584821,17.006139 C 42.584822,15.484676 43.956497,14.241614 45.666667,14.222379 L 45.666667,13.770958 C 45.666667,12.214764 44.463726,10.96212 42.980655,10.96212 L 30.257439,10.96212 C 30.176334,10.96212 30.082203,10.954781 30.002975,10.96212 C 29.970877,10.965093 29.949904,10.957966 29.918153,10.96212 z "
           id="path4023"
           sodipodi:nodetypes="cccsccccccsccccsc" />
        <path
           style="opacity:0.4;fill:#ffffff;fill-opacity:1;fill-rule:evenodd;stroke:none;stroke-width:1.05131459;stroke-linecap:butt;stroke-linejoin:miter;stroke-miterlimit:4;stroke-dashoffset:0;stroke-opacity:1"
           d="M 29.46875 11 C 29.101551 11.144908 28.768539 11.498551 28.53125 11.84375 C 28.19745 12.329351 27.96875 12.962736 27.96875 13.65625 L 27.96875 19.46875 C 27.96875 19.650799 27.970718 19.827824 28 20 L 27.96875 20 L 27.96875 23 L 28 23 C 27.979406 23.145034 27.96875 23.285794 27.96875 23.4375 L 27.96875 29.25 C 27.96875 29.943517 28.19745 30.576901 28.53125 31.0625 C 28.844188 31.51775 29.287962 31.865124 29.8125 31.90625 C 29.815795 31.906444 29.837753 31.906308 29.84375 31.90625 C 29.860547 31.906056 29.892867 31.90625 29.90625 31.90625 L 43.125 31.90625 C 43.158461 31.906251 43.210351 31.906849 43.25 31.90625 C 43.253068 31.906105 43.274889 31.906147 43.28125 31.90625 C 43.787287 31.84723 44.259994 31.502574 44.5625 31.0625 C 44.896302 30.576898 45.09375 29.943515 45.09375 29.25 L 45.09375 23.4375 C 45.09375 23.274958 45.083406 23.123558 45.0625 22.96875 L 45.09375 22.96875 L 45.09375 20 L 45.0625 20 C 45.089218 19.825915 45.09375 19.652965 45.09375 19.46875 L 45.09375 13.65625 C 45.093749 12.962736 44.8963 12.329349 44.5625 11.84375 C 44.259993 11.403675 43.787285 11.059019 43.28125 11 C 43.274889 11.000103 43.253067 11.000146 43.25 11 C 43.210351 10.9994 43.158459 11 43.125 11 L 29.90625 11 C 29.892867 11 29.860547 11.000194 29.84375 11 C 29.837753 10.999943 29.815796 10.999806 29.8125 11 C 29.801397 11.000151 29.7627 11.000525 29.75 11 C 29.746026 11.000002 29.722412 10.99981 29.71875 11 C 29.717749 10.999852 29.688555 11.000112 29.6875 11 C 29.684791 11.000279 29.658921 10.999892 29.65625 11 C 29.653639 10.999854 29.631517 10.999892 29.625 11 C 29.618463 11.000131 29.596301 11.000217 29.59375 11 C 29.586594 10.999895 29.563819 10.999739 29.5625 11 C 29.561232 10.999926 29.538458 10.999921 29.53125 11 C 29.528701 10.999843 29.502362 11.000523 29.5 11 C 29.488076 11.004262 29.480595 10.995326 29.46875 11 z M 29.71875 12.0625 C 29.720519 12.062697 29.742988 12.062556 29.75 12.0625 C 29.75155 12.062647 29.779655 12.062306 29.78125 12.0625 C 29.79205 12.062499 29.832923 12.062247 29.84375 12.0625 C 29.859937 12.06236 29.895232 12.0625 29.90625 12.0625 L 43.125 12.0625 C 43.136019 12.0625 43.171313 12.06236 43.1875 12.0625 C 43.19086 12.062421 43.215922 12.062493 43.21875 12.0625 C 43.242085 12.069392 43.289545 12.086715 43.3125 12.09375 C 43.315299 12.093695 43.340555 12.093962 43.34375 12.09375 C 43.35461 12.099124 43.395426 12.119361 43.40625 12.125 C 43.420136 12.131703 43.455022 12.148469 43.46875 12.15625 C 43.479643 12.161418 43.5204 12.182058 43.53125 12.1875 C 43.536698 12.193004 43.557063 12.213176 43.5625 12.21875 C 43.573424 12.229599 43.614124 12.270119 43.625 12.28125 C 43.631451 12.287649 43.64967 12.305649 43.65625 12.3125 C 43.696191 12.35605 43.745212 12.416323 43.78125 12.46875 C 43.786848 12.473834 43.80704 12.494636 43.8125 12.5 C 43.817402 12.510977 43.838711 12.551664 43.84375 12.5625 C 43.843805 12.569555 43.843921 12.592114 43.84375 12.59375 C 43.84552 12.593524 43.867988 12.593689 43.875 12.59375 C 43.875004 12.596871 43.87527 12.621242 43.875 12.625 C 42.969062 12.990027 42.270408 13.435616 41.78125 14.0625 C 41.23394 14.763913 41.003941 15.645034 41 16.625 C 40.995781 17.673734 41.343822 18.590576 41.9375 19.28125 C 42.266226 19.663686 42.657935 19.992824 43.09375 20.25 C 43.114503 20.262246 43.135286 20.269266 43.15625 20.28125 C 43.335527 20.322191 43.523547 20.376891 43.65625 20.4375 C 43.693071 20.455164 43.749 20.48102 43.78125 20.5 C 43.804544 20.514468 43.854471 20.547365 43.875 20.5625 C 43.881526 20.567616 43.900046 20.588566 43.90625 20.59375 C 43.912128 20.599001 43.931954 20.619684 43.9375 20.625 C 43.94271 20.630379 43.963881 20.650809 43.96875 20.65625 C 43.973274 20.66175 43.995827 20.681942 44 20.6875 C 44.003818 20.693114 44.027792 20.713081 44.03125 20.71875 C 44.043621 20.741634 44.056161 20.788851 44.0625 20.8125 C 44.063696 20.818456 44.061698 20.837753 44.0625 20.84375 C 44.062903 20.849787 44.0625 20.868925 44.0625 20.875 L 44.0625 22.1875 C 44.062097 22.193537 44.063302 22.212753 44.0625 22.21875 C 44.061304 22.224706 44.064085 22.244088 44.0625 22.25 C 44.058562 22.261734 44.036696 22.300957 44.03125 22.3125 C 43.919914 22.518452 43.569088 22.684242 43.09375 22.78125 C 43.069495 22.794538 43.023849 22.79899 43 22.8125 C 42.49917 23.096208 42.10226 23.432357 41.78125 23.84375 C 41.233942 24.545163 41.003941 25.426284 41 26.40625 C 40.995783 27.454986 41.343822 28.371826 41.9375 29.0625 C 42.438418 29.645261 43.079162 30.072061 43.8125 30.375 C 43.806971 30.380231 43.7868 30.401088 43.78125 30.40625 C 43.781303 30.409121 43.78107 30.433882 43.78125 30.4375 C 43.747179 30.484751 43.691198 30.555644 43.65625 30.59375 C 43.649672 30.600599 43.631451 30.618601 43.625 30.625 C 43.614126 30.636131 43.573424 30.676652 43.5625 30.6875 C 43.557065 30.693074 43.536698 30.713246 43.53125 30.71875 C 43.520402 30.724192 43.479643 30.744833 43.46875 30.75 C 43.455023 30.757782 43.420137 30.774546 43.40625 30.78125 C 43.395428 30.78689 43.35461 30.807126 43.34375 30.8125 C 43.340555 30.812288 43.315299 30.812555 43.3125 30.8125 C 43.308674 30.812818 43.285153 30.812603 43.28125 30.8125 C 43.279262 30.812277 43.256819 30.812399 43.25 30.8125 C 43.246055 30.812381 43.222639 30.812206 43.21875 30.8125 C 43.215922 30.815436 43.19086 30.839923 43.1875 30.84375 C 43.171315 30.84389 43.136019 30.84375 43.125 30.84375 L 29.90625 30.84375 C 29.895232 30.84375 29.859937 30.843891 29.84375 30.84375 C 29.832923 30.844002 29.79205 30.843751 29.78125 30.84375 C 29.77041 30.838241 29.729559 30.818268 29.71875 30.8125 C 29.717256 30.810709 29.694598 30.788254 29.6875 30.78125 C 29.684376 30.781564 29.659017 30.781163 29.65625 30.78125 C 29.645431 30.775705 29.604636 30.755573 29.59375 30.75 C 29.576997 30.742163 29.54153 30.724672 29.53125 30.71875 C 29.520345 30.713653 29.47961 30.692876 29.46875 30.6875 C 29.442725 30.663689 29.397399 30.61715 29.375 30.59375 C 29.336919 30.551902 29.286039 30.489928 29.25 30.4375 C 29.244801 30.427049 29.223804 30.385733 29.21875 30.375 C 29.958378 30.072058 30.624085 29.645256 31.125 29.0625 C 31.718678 28.371827 32.097969 27.454985 32.09375 26.40625 C 32.08981 25.426282 31.79731 24.545158 31.25 23.84375 C 30.913704 23.412768 30.471117 23.073586 29.9375 22.78125 C 29.911889 22.775401 29.899776 22.756294 29.875 22.75 C 29.701569 22.705945 29.531224 22.656764 29.40625 22.59375 C 29.345746 22.561661 29.264432 22.504559 29.21875 22.46875 C 29.212546 22.463566 29.193378 22.442751 29.1875 22.4375 C 29.181954 22.432184 29.16146 22.411629 29.15625 22.40625 C 29.151381 22.400809 29.129524 22.3805 29.125 22.375 C 29.120827 22.369442 29.097568 22.349364 29.09375 22.34375 C 29.07992 22.321076 29.070376 22.273469 29.0625 22.25 C 29.060915 22.244088 29.063696 22.224706 29.0625 22.21875 C 29.061698 22.212753 29.062903 22.193537 29.0625 22.1875 L 29.0625 20.875 C 29.0625 20.868925 29.062097 20.849787 29.0625 20.84375 C 29.063302 20.837753 29.061304 20.818456 29.0625 20.8125 C 29.064085 20.806588 29.060531 20.787117 29.0625 20.78125 C 29.067197 20.769609 29.087565 20.730192 29.09375 20.71875 C 29.121411 20.673402 29.169116 20.635224 29.21875 20.59375 C 29.231159 20.583382 29.236314 20.57259 29.25 20.5625 C 29.253421 20.559977 29.27775 20.565005 29.28125 20.5625 C 29.28475 20.559995 29.277672 20.533736 29.28125 20.53125 C 29.393184 20.45777 29.546324 20.397298 29.71875 20.34375 C 29.76473 20.329471 29.825448 20.293837 29.875 20.28125 C 30.34563 20.017601 30.780621 19.681895 31.125 19.28125 C 31.718678 18.590576 32.097969 17.673735 32.09375 16.625 C 32.089808 15.64503 31.79731 14.763908 31.25 14.0625 C 30.760842 13.435617 30.062188 12.990028 29.15625 12.625 C 29.161757 12.619732 29.181955 12.598952 29.1875 12.59375 C 29.187338 12.590223 29.18754 12.565387 29.1875 12.5625 C 29.193038 12.551815 29.213222 12.51072 29.21875 12.5 C 29.225506 12.49333 29.246434 12.472035 29.25 12.46875 C 29.286038 12.416323 29.336919 12.354345 29.375 12.3125 C 29.397399 12.2891 29.442725 12.242561 29.46875 12.21875 C 29.47961 12.213375 29.520345 12.192597 29.53125 12.1875 C 29.571933 12.160877 29.639505 12.114375 29.6875 12.09375 C 29.690233 12.093792 29.715763 12.093425 29.71875 12.09375 C 29.718496 12.090063 29.718728 12.065504 29.71875 12.0625 z M 44.0625 13.59375 C 44.064896 13.593449 44.091081 13.593644 44.09375 13.59375 C 44.093571 13.595679 44.093694 13.618035 44.09375 13.625 C 44.095171 13.625177 44.117878 13.625058 44.125 13.625 C 44.125293 13.639872 44.125 13.641276 44.125 13.65625 L 44.125 19.46875 C 44.125 19.491214 44.124678 19.51111 44.125 19.53125 C 44.124879 19.541523 44.125643 19.582762 44.125 19.59375 C 43.513608 19.328355 42.994124 18.960681 42.625 18.53125 C 42.177578 18.010726 41.934335 17.411777 41.9375 16.625 C 41.94069 15.832142 42.107582 15.252906 42.5 14.75 C 42.831102 14.325673 43.337331 13.938003 44.0625 13.625 C 44.062407 13.622053 44.062776 13.597583 44.0625 13.59375 z M 28.9375 13.625 C 29.686276 13.940722 30.226493 14.319386 30.5625 14.75 C 30.954918 15.252906 31.121811 15.832146 31.125 16.625 C 31.128165 17.411776 30.853673 18.041977 30.40625 18.5625 C 30.04272 18.985427 29.536644 19.337014 28.9375 19.59375 C 28.936987 19.582765 28.937596 19.54152 28.9375 19.53125 C 28.937756 19.511113 28.9375 19.491211 28.9375 19.46875 L 28.9375 13.65625 C 28.9375 13.641276 28.93727 13.639872 28.9375 13.625 z M 28.9375 23.40625 C 29.686276 23.721974 30.226493 24.100636 30.5625 24.53125 C 30.954918 25.034159 31.121811 25.613396 31.125 26.40625 C 31.128165 27.193027 30.853673 27.823227 30.40625 28.34375 C 30.04272 28.766679 29.536644 29.118264 28.9375 29.375 C 28.935449 29.331049 28.9375 29.294922 28.9375 29.25 L 28.9375 23.4375 C 28.9375 23.422527 28.93727 23.421122 28.9375 23.40625 z M 44.0625 23.40625 C 44.063698 23.4061 44.092477 23.406288 44.09375 23.40625 C 44.095171 23.406427 44.117878 23.406308 44.125 23.40625 C 44.125295 23.421121 44.125 23.422526 44.125 23.4375 L 44.125 29.25 C 44.125002 29.294925 44.127573 29.331046 44.125 29.375 C 43.51361 29.109605 42.994124 28.741931 42.625 28.3125 C 42.17758 27.791978 41.934335 27.193027 41.9375 26.40625 C 41.940692 25.613393 42.107582 25.034156 42.5 24.53125 C 42.831104 24.106925 43.337331 23.719253 44.0625 23.40625 z "
           transform="matrix(1,0,0,0.981848,9.077157e-2,0.671702)"
           id="path4268" />
        <path
           style="fill:#ffffff;fill-opacity:1;fill-rule:evenodd;stroke:#000000;stroke-width:0.99088269;stroke-linecap:butt;stroke-linejoin:miter;stroke-miterlimit:4;stroke-dasharray:none;stroke-dashoffset:0;stroke-opacity:1"
           d="M 45.270834,14.24739 C 43.711133,14.405705 42.5,15.580451 42.5,17.006071 C 42.5,18.539512 43.909604,19.789831 45.638393,19.789831 C 45.651899,19.789831 45.653201,19.789982 45.666667,19.789831 L 45.666667,14.24739 C 45.653201,14.247239 45.651899,14.24739 45.638393,14.24739 C 45.516838,14.24739 45.388794,14.235417 45.270834,14.24739 z "
           id="path4025" />
        <path
           style="fill:#ffffff;fill-opacity:1;fill-rule:evenodd;stroke:#000000;stroke-width:0.99088269;stroke-linecap:butt;stroke-linejoin:miter;stroke-miterlimit:4;stroke-dasharray:none;stroke-dashoffset:0;stroke-opacity:1"
           d="M 27.571427,14.222379 L 27.571427,19.789899 C 29.300218,19.789899 30.709819,18.539579 30.70982,17.006139 C 30.70982,15.472698 29.300218,14.222379 27.571427,14.222379 z "
           id="path4027" />
        <path
           style="fill:#ffffff;fill-opacity:1;fill-rule:evenodd;stroke:#000000;stroke-width:0.99088269;stroke-linecap:butt;stroke-linejoin:miter;stroke-miterlimit:4;stroke-dasharray:none;stroke-dashoffset:0;stroke-opacity:1"
           d="M 27.581416,23.771444 L 27.581416,29.338964 C 29.310207,29.338964 30.719808,28.088644 30.719809,26.555204 C 30.719809,25.021763 29.310207,23.771444 27.581416,23.771444 z "
           id="path4053" />
        <path
           style="fill:#ffffff;fill-opacity:1;fill-rule:evenodd;stroke:#000000;stroke-width:0.99088269;stroke-linecap:butt;stroke-linejoin:miter;stroke-miterlimit:4;stroke-dasharray:none;stroke-dashoffset:0;stroke-opacity:1"
           d="M 45.210499,23.797647 C 43.650798,23.955962 42.439665,25.130708 42.439665,26.556328 C 42.439665,28.089769 43.849269,29.340088 45.578058,29.340088 C 45.591564,29.340088 45.592866,29.340239 45.606332,29.340088 L 45.606332,23.797647 C 45.592866,23.797496 45.591564,23.797647 45.578058,23.797647 C 45.456503,23.797647 45.328459,23.785674 45.210499,23.797647 z "
           id="path4055" />
      </g>
      <path
         id="path4074"
         d="M 20.582707,12.056391 L 27.5,16.5"
         style="fill:none;fill-opacity:0.75;fill-rule:evenodd;stroke:#000000;stroke-width:1px;stroke-linecap:butt;stroke-linejoin:miter;stroke-opacity:1" />
      <path
         id="path4076"
         d="M 20.676518,30.079696 L 27.537783,25.502296"
         style="fill:none;fill-opacity:0.75;fill-rule:evenodd;stroke:#000000;stroke-width:1.00000012px;stroke-linecap:butt;stroke-linejoin:miter;stroke-opacity:1" />
    </g>
    <path
       sodipodi:type="arc"
       style="opacity:0.15;fill:url(#radialGradient4112);fill-opacity:1;fill-rule:evenodd;stroke:none;stroke-width:0.79628658;stroke-linecap:butt;stroke-linejoin:miter;stroke-miterlimit:4;stroke-dasharray:none;stroke-dashoffset:0;stroke-opacity:1"
       id="path4104"
       sodipodi:cx="24.240601"
       sodipodi:cy="42.526318"
       sodipodi:rx="17.263159"
       sodipodi:ry="2.3458648"
       d="M 41.503759 42.526318 A 17.263159 2.3458648 0 1 1  6.9774418,42.526318 A 17.263159 2.3458648 0 1 1  41.503759 42.526318 z"
       transform="matrix(1.390243,0,0,1.705131,-9.700338,-30.51295)" />
  </g>
</svg>
